<svg width="22" height="22" viewBox="0 0 22 22" fill="none" xmlns="http://www.w3.org/2000/svg">
<mask id="mask0_2315_645" style="mask-type:alpha" maskUnits="userSpaceOnUse" x="0" y="0" width="22" height="22">
<rect width="22" height="22" fill="#D9D9D9"/>
</mask>
<g mask="url(#mask0_2315_645)">
<path d="M8.22078 13.9938L15.8772 6.37004C16.1248 6.12335 16.4166 6 16.7527 6C17.0889 6 17.3808 6.12335 17.6284 6.37004C17.8761 6.61657 18 6.90886 18 7.2469C18 7.58494 17.8761 7.87731 17.6284 8.124L9.09648 16.63C8.84874 16.8767 8.55684 17 8.22078 17C7.88471 17 7.59281 16.8767 7.34507 16.63L3.36656 12.6683C3.11882 12.4216 2.99665 12.1292 3.00007 11.7912C3.00348 11.4532 3.12906 11.1609 3.3768 10.9143C3.62439 10.6677 3.91792 10.5443 4.2574 10.5443C4.59688 10.5443 4.89049 10.6677 5.13823 10.9143L8.22078 13.9938Z" fill="#B1C29E"/>
</g>
</svg>
