<svg width="22" height="22" viewBox="0 0 22 22" fill="none" xmlns="http://www.w3.org/2000/svg">
<path d="M9.41011 12.6933L7.3678 10.651C7.14375 10.4269 6.86705 10.3149 6.5377 10.3149C6.20834 10.3149 5.9163 10.4356 5.66157 10.6769C5.43752 10.9181 5.3255 11.2025 5.3255 11.53C5.3255 11.8574 5.44614 12.1332 5.68743 12.3572L8.53114 15.2268C8.78018 15.4681 9.07084 15.5887 9.40313 15.5887C9.73524 15.5887 10.0306 15.4681 10.2891 15.2268L16.1575 9.33255C16.416 9.09127 16.5452 8.81025 16.5452 8.48952C16.5452 8.16878 16.416 7.88105 16.1575 7.62632C15.9162 7.40227 15.6265 7.29456 15.2886 7.30317C14.9506 7.31179 14.6629 7.42812 14.4254 7.65217L9.41011 12.6933ZM10.9907 22C9.47163 22 8.04435 21.7149 6.70884 21.1448C5.3735 20.5745 4.20663 19.7902 3.20823 18.7918C2.20982 17.7934 1.42548 16.6277 0.855182 15.2948C0.285061 13.9617 0 12.5356 0 11.0165C0 9.48025 0.285061 8.04435 0.855182 6.70884C1.42548 5.3735 2.20844 4.21042 3.20409 3.2196C4.19973 2.22895 5.36471 1.44469 6.69901 0.866816C8.03349 0.288939 9.46095 0 10.9814 0C12.5191 0 13.9567 0.288249 15.2943 0.864748C16.6317 1.44142 17.7951 2.22396 18.7845 3.21236C19.774 4.20077 20.5572 5.36298 21.1342 6.69901C21.7114 8.03521 22 9.47318 22 11.0129C22 12.5344 21.7111 13.9627 21.1332 15.2979C20.5553 16.6331 19.771 17.7988 18.7804 18.7951C17.7896 19.7913 16.6277 20.5745 15.2948 21.1448C13.9617 21.7149 12.527 22 10.9907 22Z" fill="#B1C29E"/>
</svg>
